<?xml version="1.0" encoding="UTF-8"?> <svg xmlns="http://www.w3.org/2000/svg" width="151" height="41" viewBox="0 0 151 41" fill="none"><path d="M48.4043 38.6271C47.8613 38.3098 47.5013 37.718 47.5135 37.0499C47.5318 36.0737 48.3403 35.2958 49.3165 35.3141C49.5697 35.3202 49.8076 35.3751 50.0181 35.4758C51.278 36.0584 52.7088 36.4947 54.1395 36.5191C55.8326 36.5679 57.0254 35.9395 57.0589 34.8717C57.1108 31.876 47.4983 33.5966 47.6356 27.2848C47.7057 23.9566 50.4726 21.7754 54.5574 21.8608C56.4641 21.9005 58.2243 22.4435 59.7893 23.2397C60.3902 23.5386 60.7929 24.161 60.7777 24.8718C60.7594 25.8571 59.9418 26.6411 58.9564 26.6228C58.6971 26.6167 58.4561 26.5588 58.2395 26.455C56.8729 25.8022 55.4513 25.4209 54.411 25.4178C52.8796 25.4087 51.8363 26.1957 51.8088 27.2513C51.7082 30.2836 61.3268 28.4807 61.2261 34.7497C61.1742 38.0474 58.3921 40.0609 54.2158 40.0639C52.0834 40.0639 50.1188 39.5941 48.4013 38.6301L48.4043 38.6271Z" fill="#CB5967"></path><path d="M63.4988 31.0951C63.4988 25.7137 67.2236 21.8791 71.8179 21.8791C76.766 21.8791 80.1614 25.9944 80.137 31.1073C80.137 32.0865 79.3438 32.8797 78.3645 32.8797H67.8734C68.3737 34.9144 69.8899 36.2201 72.1535 36.2262C73.5995 36.2323 74.899 35.8693 76.3054 35.2287C76.5311 35.1341 76.7782 35.0792 77.0375 35.0792C78.0991 35.0792 78.9625 35.9395 78.9625 37.0041C78.9625 37.8247 78.45 38.5233 77.727 38.7979C75.8966 39.5697 74.0967 40.0242 72.1565 40.0425C67.0559 40.1036 63.4988 36.3787 63.4988 31.0951ZM75.6922 29.3348C75.3749 27.178 73.6208 25.7351 71.8179 25.7351C70.015 25.7351 68.1968 27.1658 67.8673 29.3348H75.6922Z" fill="#CB5967"></path><path d="M109.435 37.8949V12.9774H110.893C112.41 12.9774 113.639 14.2068 113.639 15.7229V37.9834C113.639 39.167 112.663 40.1188 111.473 40.0853C110.283 40.0517 109.435 39.048 109.435 37.8949Z" fill="#CB5967"></path><path d="M117.339 28.5661H120.622C121.683 28.5661 122.544 29.4264 122.544 30.488C122.544 31.5496 121.683 32.4099 120.622 32.4099H117.339C116.278 32.4099 115.417 31.5496 115.417 30.488C115.417 29.4264 116.278 28.5661 117.339 28.5661Z" fill="#CB5967"></path><path d="M141.873 15.1006V37.6722C141.873 38.8223 141.394 40.0609 139.835 40.0609C138.276 40.0609 137.669 38.9443 137.669 37.7607V37.6997C136.223 39.2067 134.27 40.0853 132.123 40.0853C127.666 40.0853 124.051 36.2933 124.051 30.97C124.051 25.6466 127.666 21.8547 132.123 21.8547C134.27 21.8547 136.22 22.7333 137.669 24.2403V12.7577H139.53C140.823 12.7577 141.876 13.8071 141.876 15.1037L141.873 15.1006ZM137.8 30.97C137.8 27.8827 135.68 25.6832 133.065 25.6832C130.451 25.6832 128.331 27.8827 128.331 30.97C128.331 34.0572 130.451 36.2567 133.065 36.2567C135.68 36.2567 137.8 34.0572 137.8 30.97Z" fill="#CB5967"></path><path d="M147.409 40.0609C149.392 40.0609 151 38.4533 151 36.4703C151 34.4872 149.392 32.8797 147.409 32.8797C145.426 32.8797 143.819 34.4872 143.819 36.4703C143.819 38.4533 145.426 40.0609 147.409 40.0609Z" fill="#CB5967"></path><path d="M107.141 37.3794C106.903 36.397 105.878 35.7839 104.899 36.0645C103.416 36.4855 102.272 36.4306 101.543 35.6283C101.009 35.0304 100.787 34.1365 100.787 32.8949V26.1896H104.588C105.665 26.1896 106.534 25.3019 106.504 24.2189C106.473 23.136 105.561 22.3611 104.511 22.3611H100.79V19.1457C100.79 17.6296 99.5603 16.4002 98.0441 16.4002C97.4676 16.4002 97.2906 16.4002 96.5859 16.4002V22.3611H89.0356C87.9588 22.3611 87.0924 23.2458 87.1229 24.3318C87.1534 25.4178 88.0655 26.1927 89.115 26.1927H96.589V31.9675C96.589 34.1274 96.6988 35.8418 97.8184 37.4617C99.5328 40.1493 102.846 40.6435 105.881 39.5666C106.824 39.2219 107.388 38.3342 107.147 37.3824L107.141 37.3794Z" fill="#CB5967"></path><path d="M85.6494 24.2738C85.6494 22.6418 86.9216 21.3056 88.5231 21.1958V19.1427C88.5231 17.6265 87.2937 16.3971 85.7776 16.3971C85.1644 16.3971 84.9447 16.3971 84.3194 16.3971V22.3581H82.2388C81.162 22.3581 80.2956 23.2427 80.3261 24.3288C80.3566 25.4148 81.2687 26.1896 82.3182 26.1896H84.3194V31.9645C84.3194 34.1243 84.4292 35.8388 85.5488 37.4587C87.2632 40.1463 90.5762 40.6405 93.6116 39.5636C94.5542 39.2189 95.1186 38.3311 94.8776 37.3793C94.6396 36.397 93.6146 35.7839 92.6354 36.0645C91.1528 36.4855 90.0057 36.4306 89.2797 35.6283C88.7458 35.0304 88.5231 34.1365 88.5231 32.8949V27.3519C86.9216 27.2421 85.6494 25.9059 85.6494 24.2738Z" fill="#CB5967"></path><path d="M35.7442 40.0425H4.57594C2.05002 40.0425 0 37.9925 0 35.4666V16.8364C0 15.4331 0.643683 14.1061 1.74801 13.2397L17.3306 0.979252C18.9902 -0.326417 21.33 -0.326417 22.9895 0.979252L38.5721 13.2397C39.6765 14.1061 40.3202 15.4331 40.3202 16.8364V35.4666C40.3202 37.9925 38.2701 40.0425 35.7442 40.0425ZM10.6772 30.8907H29.643C30.4849 30.8907 31.1683 30.2073 31.1683 29.3653V19.7986C31.1683 19.3318 30.9547 18.8895 30.5856 18.5997L21.1042 11.1409C20.5521 10.7047 19.7711 10.7047 19.219 11.1409L9.73761 18.5997C9.36848 18.8895 9.15494 19.3318 9.15494 19.7986V29.3653C9.15494 30.2073 9.83828 30.8907 10.6802 30.8907H10.6772Z" fill="#CB5967"></path></svg> 